<svg xmlns="http://www.w3.org/2000/svg" xml:space="preserve" viewBox="0 0 128 128">
  <g clip-rule="evenodd">
    <path fill="none" d="M0 0h128v128H0z"/>
    <path fill="#0B0B0A" fill-rule="evenodd" d="M117 73.2 103.2 64l13.8-9.2v18.4zm-47.5 39V86.6l23.8-16 19.3 12.9-43.1 28.7zM64 77 44.5 64 64 51l19.5 13L64 77zm-5.5 35.2L15.4 83.5l19.3-12.9 23.8 16v25.6zM11 54.8 24.8 64 11 73.2V54.8zm47.5-39v25.6l-23.8 16-19.3-12.9 43.1-28.7zm11 0 43.1 28.7-19.3 12.9-23.8-16V15.8zm58.5 28v-.3l-.2-.4v-.3a6.7 6.7 0 0 0-.5-1l-.2-.3a3.9 3.9 0 0 0-.4-.5l-.3-.3-.2-.3-.3-.2-.3-.2L67 1a5.5 5.5 0 0 0-6.2 0L2.5 40h-.1a4 4 0 0 0-.6.4l-.2.3a3.8 3.8 0 0 0-.5.5 5 5 0 0 0-.6 1v.2l-.2.4-.1.3-.1.4v.3l-.1.7v39.7l.1.3v.4l.2.3.1.4.1.3.2.3.2.3A4.9 4.9 0 0 0 2 87.8l.3.2L61 127a5.4 5.4 0 0 0 6.1 0l58.6-39 .3-.2.3-.2.2-.3a4.8 4.8 0 0 0 .7-.8l.2-.3.2-.3v-.3l.2-.4.1-.3.1-.4v-.3l.1-.7V43.8z"/>
  </g>
</svg>
