<svg xmlns="http://www.w3.org/2000/svg" viewBox="0 0 20 20">
  <g transform="translate(-4.08 -4.08)">
    <path d="M14.08 5.88c2.67 0 2.99.01 4.04.06a5.53 5.53 0 0 1 1.86.35 3.31 3.31 0 0 1 1.9 1.9 5.53 5.53 0 0 1 .35 1.85c.04 1.06.05 1.37.05 4.04s0 2.99-.05 4.04a5.53 5.53 0 0 1-.35 1.86 3.31 3.31 0 0 1-1.9 1.9 5.53 5.53 0 0 1-1.86.35c-1.05.04-1.37.05-4.04.05s-2.98 0-4.04-.05a5.53 5.53 0 0 1-1.85-.35 3.31 3.31 0 0 1-1.9-1.9 5.53 5.53 0 0 1-.35-1.86c-.05-1.05-.06-1.37-.06-4.04s.01-2.98.06-4.04A5.53 5.53 0 0 1 6.3 8.2a3.31 3.31 0 0 1 1.9-1.9 5.53 5.53 0 0 1 1.85-.35c1.06-.05 1.37-.06 4.04-.06m0-1.8c-2.71 0-3.05.01-4.12.06a7.34 7.34 0 0 0-2.43.47 5.12 5.12 0 0 0-2.92 2.92 7.34 7.34 0 0 0-.47 2.43c-.05 1.06-.06 1.4-.06 4.12s.01 3.06.06 4.13a7.34 7.34 0 0 0 .47 2.42 5.12 5.12 0 0 0 2.92 2.93 7.34 7.34 0 0 0 2.43.46c1.07.05 1.4.06 4.12.06s3.06 0 4.13-.06a7.34 7.34 0 0 0 2.42-.46 5.11 5.11 0 0 0 2.93-2.93 7.34 7.34 0 0 0 .46-2.42c.05-1.07.06-1.41.06-4.13s0-3.05-.06-4.12a7.34 7.34 0 0 0-.46-2.43 5.11 5.11 0 0 0-2.93-2.92 7.34 7.34 0 0 0-2.42-.47c-1.07-.04-1.41-.06-4.13-.06Z" data-name="Path 4"/>
    <path d="M14.08 8.95a5.13 5.13 0 1 0 5.14 5.13 5.13 5.13 0 0 0-5.14-5.13Zm0 8.47a3.33 3.33 0 1 1 3.34-3.34 3.33 3.33 0 0 1-3.34 3.33Z" data-name="Path 5"/>
    <circle cx="1.2" cy="1.2" r="1.2" data-name="Ellipse 1" transform="translate(18.22 7.54)"/>
  </g>
</svg>
