<?xml version="1.0" encoding="utf-8"?>
<!-- Generator: Adobe Illustrator 24.3.0, SVG Export Plug-In . SVG Version: 6.00 Build 0)  -->
<svg version="1.1" id="Layer_1" xmlns="http://www.w3.org/2000/svg" xmlns:xlink="http://www.w3.org/1999/xlink" x="0px" y="0px"
	 viewBox="0 0 250 250" style="enable-background:new 0 0 250 250;" xml:space="preserve">
<style type="text/css">
	.st0{fill:#EFBB1C;}
	.st1{fill:#010101;}
</style>
<g>
	<path class="st0" d="M0,0v250h250V0H0z M228.3,184.8h-76.1v43.5H21.7V119.6h108.7V62.4L87,91.3L43.5,62.4v35.4H21.7V21.7L87,65.2
		l65.2-43.5v119.6H43.5v65.2h87v-21.7H76.1V163h152.2V184.8z"/>
	<g>
		<polygon class="st1" points="228.3,163 228.3,184.8 152.2,184.8 152.2,228.3 21.7,228.3 21.7,119.6 130.4,119.6 130.4,62.4 
			87,91.3 43.5,62.4 43.5,97.8 21.7,97.8 21.7,21.7 87,65.2 152.2,21.7 152.2,141.3 43.5,141.3 43.5,206.5 130.4,206.5 130.4,184.8 
			76.1,184.8 76.1,163 		"/>
	</g>
</g>
</svg>
